<?xml version="1.0" standalone="no"?>
<!DOCTYPE svg PUBLIC "-//W3C//DTD SVG 20010904//EN"
 "http://www.w3.org/TR/2001/REC-SVG-20010904/DTD/svg10.dtd">
<svg version="1.0" xmlns="http://www.w3.org/2000/svg"
 width="500.000000pt" height="500.000000pt" viewBox="0 0 500.000000 500.000000"
 preserveAspectRatio="xMidYMid meet">
<metadata>
Created by potrace 1.11, written by Peter Selinger 2001-2013
</metadata>
<g transform="translate(0.000000,500.000000) scale(0.100000,-0.100000)"
fill="#000000" stroke="none">
<path d="M1108 4995 c-2 -1 -23 -5 -48 -9 -173 -22 -332 -104 -445 -228 -195
-213 -254 -513 -152 -758 14 -32 13 -34 -48 -124 -88 -130 -129 -204 -205
-371 -44 -99 -119 -315 -134 -389 -3 -11 -14 -61 -25 -111 -37 -168 -46 -275
-46 -510 1 -185 6 -262 25 -375 5 -30 12 -71 15 -90 19 -110 90 -350 142 -475
31 -76 147 -307 172 -343 10 -15 35 -54 56 -87 75 -118 202 -272 326 -396 401
-400 933 -653 1504 -715 90 -10 387 -11 490 -1 76 7 93 9 175 23 19 3 46 8 60
10 114 19 261 61 425 122 505 188 957 565 1245 1037 183 300 310 679 346 1035
9 90 11 457 2 500 -3 19 -14 85 -23 145 -100 670 -496 1296 -1058 1671 -330
220 -655 349 -1037 410 -14 2 -38 6 -55 9 -117 18 -356 24 -510 12 -209 -17
-401 -55 -592 -119 l-91 -30 -45 30 c-47 33 -128 72 -190 92 -40 13 -41 13
-97 23 -38 8 -177 17 -182 12z m177 -179 c229 -57 407 -240 449 -463 17 -90
11 -165 -20 -262 -33 -99 -127 -295 -210 -435 -84 -140 -333 -516 -342 -516
-7 1 -25 26 -137 190 -199 294 -388 649 -427 802 -47 188 6 370 152 519 81 82
174 136 280 163 56 14 201 15 255 2z m1470 -1 c145 -16 353 -64 516 -120 159
-56 508 -231 509 -257 0 -10 -38 -45 -89 -80 -67 -47 -148 -68 -249 -67 -97 2
-157 -11 -219 -47 -132 -77 -229 -293 -219 -491 12 -224 118 -399 297 -485 69
-34 229 -82 362 -108 92 -18 223 -18 321 0 196 37 311 23 483 -61 120 -59 220
-145 282 -243 73 -117 74 -119 76 -341 3 -279 -28 -494 -106 -736 -31 -95
-117 -309 -125 -309 -2 0 -30 14 -61 32 -31 17 -95 48 -143 68 l-87 36 21 44
c31 64 65 177 81 265 12 64 5 183 -15 259 -64 252 -247 448 -494 531 -62 21
-102 28 -227 40 -24 2 -106 -7 -181 -20 -51 -9 -173 -61 -231 -98 -149 -96
-257 -239 -311 -412 -40 -128 -41 -280 -2 -405 28 -91 144 -342 196 -427 12
-18 8 -26 -36 -80 -27 -33 -76 -96 -108 -141 -32 -45 -65 -82 -72 -82 -25 0
-99 163 -120 265 -20 96 -22 161 -11 335 12 178 -56 316 -191 388 -165 88
-515 125 -745 78 -173 -35 -220 -26 -294 58 -50 57 -77 130 -76 208 1 102 25
120 266 203 211 72 325 132 497 259 171 127 311 287 367 421 33 78 44 130 44
205 1 126 -42 229 -148 358 -104 127 -149 202 -185 317 -16 52 -18 180 -3 257
23 119 78 260 142 361 l24 39 107 -6 c59 -3 130 -9 157 -11z m-475 -8 c0 -7
-4 -17 -9 -22 -14 -16 -78 -184 -96 -253 -43 -168 -39 -313 12 -455 36 -104
82 -182 176 -299 98 -123 126 -178 130 -256 7 -128 -64 -266 -209 -402 -180
-169 -352 -270 -594 -350 -281 -93 -356 -160 -367 -327 -10 -138 31 -260 120
-359 99 -109 250 -151 407 -113 119 29 274 39 375 24 340 -51 407 -100 399
-294 -11 -268 -1 -360 54 -521 67 -193 154 -280 268 -267 63 7 103 38 180 145
38 51 80 106 93 122 l23 29 111 -167 c170 -257 256 -371 283 -378 63 -16 89
11 275 284 88 129 205 316 307 491 7 12 21 10 83 -14 71 -27 170 -76 197 -97
14 -12 -15 -71 -69 -140 -16 -20 -29 -40 -29 -43 0 -3 -35 -50 -77 -103 -83
-104 -231 -257 -328 -338 -306 -257 -693 -438 -1085 -508 -47 -8 -101 -18
-120 -21 -46 -9 -476 -15 -514 -8 -47 9 -82 104 -80 218 2 121 64 207 181 253
120 47 212 146 251 272 24 76 23 272 -1 355 -26 91 -92 213 -148 277 -86 98
-227 177 -346 194 -101 15 -176 -3 -337 -81 -125 -60 -307 -128 -378 -140 -18
-3 -49 -10 -68 -14 -112 -25 -239 -8 -340 45 -76 40 -119 75 -208 166 -136
141 -232 297 -291 475 -27 83 -73 293 -86 393 -3 25 -8 56 -10 70 -35 194 -43
296 -40 505 2 116 5 221 8 235 2 14 8 51 12 83 5 38 19 80 41 119 19 33 34 62
34 64 0 2 19 33 42 69 l42 64 39 -72 c140 -256 458 -740 520 -789 25 -20 59
-23 87 -8 42 22 325 437 469 688 75 129 158 304 196 412 33 92 38 118 41 215
2 90 -1 125 -20 195 -23 87 -70 191 -106 237 -11 14 -20 29 -20 34 0 21 273
89 430 106 30 3 57 7 59 9 10 9 31 3 31 -9z m1735 -542 c315 -263 557 -624
700 -1047 l33 -96 -71 48 c-136 92 -275 149 -414 170 -83 13 -174 8 -295 -15
-137 -26 -320 -5 -512 59 -94 32 -141 61 -193 120 -127 145 -122 439 11 568
43 42 98 57 196 54 152 -5 313 64 424 183 33 35 23 38 121 -44z m-3800 -1390
c3 -33 8 -71 10 -85 2 -14 7 -45 10 -70 37 -298 101 -569 168 -722 104 -234
325 -489 517 -596 106 -59 184 -77 330 -76 176 2 384 63 650 193 110 53 166
64 238 45 144 -38 256 -144 311 -294 75 -207 27 -404 -117 -470 -118 -54 -140
-68 -186 -115 -58 -58 -89 -123 -112 -230 -9 -40 -5 -165 6 -205 6 -23 10 -44
8 -46 -7 -6 -259 63 -343 95 -332 123 -615 302 -849 537 -215 216 -374 445
-489 704 -73 164 -141 379 -161 504 -4 21 -8 41 -10 45 -2 3 -7 35 -10 71 -4
36 -11 94 -15 130 -8 64 -6 386 2 445 3 17 8 53 11 80 4 28 9 59 11 70 2 11 4
29 4 39 2 36 9 11 16 -49z m3603 -320 c136 -40 262 -132 335 -247 72 -112 107
-269 86 -384 -13 -69 -73 -221 -132 -334 -105 -202 -413 -687 -442 -697 -6 -1
-17 8 -25 21 -8 14 -67 103 -131 198 -64 95 -144 220 -178 277 -78 130 -194
366 -222 451 -45 136 -29 298 43 433 45 84 156 193 241 236 131 66 293 84 425
46z"/>
<path d="M1043 4640 c-67 -27 -141 -94 -178 -162 -27 -48 -30 -62 -30 -148 0
-80 4 -102 23 -140 75 -147 226 -220 378 -185 252 58 344 365 165 553 -61 64
-131 95 -226 99 -63 2 -91 -1 -132 -17z m194 -164 c104 -53 122 -190 34 -269
-105 -95 -274 -22 -274 118 0 126 131 208 240 151z"/>
<path d="M3568 2396 c-96 -34 -160 -89 -204 -176 -24 -47 -28 -67 -29 -140 0
-72 4 -94 27 -142 72 -153 241 -227 404 -177 165 51 258 221 219 399 -19 89
-93 176 -185 219 -64 29 -172 37 -232 17z m182 -176 c10 -6 32 -27 47 -47 24
-31 28 -46 28 -98 0 -47 -5 -67 -22 -89 -45 -56 -73 -71 -138 -71 -52 0 -67 4
-99 29 -107 81 -84 236 43 289 34 15 101 9 141 -13z"/>
</g>
</svg>
